<svg xmlns="http://www.w3.org/2000/svg" viewBox="0 0 800 600" width="800" height="600">
  <defs>
    <linearGradient id="luxurySky" x1="0%" y1="0%" x2="0%" y2="100%">
      <stop offset="0%" style="stop-color:#FFB6C1;stop-opacity:1" />
      <stop offset="50%" style="stop-color:#FFA07A;stop-opacity:1" />
      <stop offset="100%" style="stop-color:#FFE4B5;stop-opacity:1" />
    </linearGradient>
    <linearGradient id="luxuryWood" x1="0%" y1="0%" x2="100%" y2="0%">
      <stop offset="0%" style="stop-color:#DEB887;stop-opacity:1" />
      <stop offset="25%" style="stop-color:#D2B48C;stop-opacity:1" />
      <stop offset="50%" style="stop-color:#F4A460;stop-opacity:1" />
      <stop offset="75%" style="stop-color:#D2B48C;stop-opacity:1" />
      <stop offset="100%" style="stop-color:#DEB887;stop-opacity:1" />
    </linearGradient>
    <linearGradient id="luxuryRoof" x1="0%" y1="0%" x2="0%" y2="100%">
      <stop offset="0%" style="stop-color:#8B4513;stop-opacity:1" />
      <stop offset="100%" style="stop-color:#A0522D;stop-opacity:1" />
    </linearGradient>
  </defs>

  <!-- Sky -->
  <rect width="800" height="600" fill="url(#luxurySky)"/>

  <!-- Sun -->
  <circle cx="650" cy="120" r="50" fill="#FFD700" opacity="0.8"/>
  <circle cx="650" cy="120" r="60" fill="#FFD700" opacity="0.3"/>

  <!-- Clouds -->
  <g opacity="0.6">
    <ellipse cx="150" cy="100" rx="40" ry="20" fill="#FFFFFF"/>
    <ellipse cx="180" cy="100" rx="50" ry="25" fill="#FFFFFF"/>
    <ellipse cx="210" cy="100" rx="40" ry="20" fill="#FFFFFF"/>
  </g>

  <!-- Main Luxury House -->
  <g transform="translate(150, 200)">
    <!-- Foundation -->
    <rect x="0" y="250" width="500" height="150" fill="#8B7355"/>

    <!-- Main Structure -->
    <rect x="0" y="100" width="500" height="150" fill="url(#luxuryWood)"/>

    <!-- Roof -->
    <polygon points="-30,100 250,20 530,100" fill="url(#luxuryRoof)"/>

    <!-- Garage Section -->
    <rect x="350" y="180" width="150" height="120" fill="url(#luxuryWood)"/>
    <polygon points="340,180 425,140 510,180" fill="url(#luxuryRoof)"/>

    <!-- Garage Door -->
    <rect x="370" y="220" width="110" height="80" fill="#2F4F4F" rx="2"/>
    <line x1="425" y1="220" x2="425" y2="300" stroke="#1C1C1C" stroke-width="3"/>
    <rect x="415" y="270" width="20" height="10" fill="#1C1C1C"/>

    <!-- Main Entrance -->
    <rect x="200" y="180" width="80" height="170" fill="#654321"/>
    <rect x="210" y="190" width="60" height="100" fill="#8B4513" opacity="0.7"/>
    <circle cx="280" cy="265" r="3" fill="#D4A574"/>

    <!-- Large Windows -->
    <rect x="50" y="130" width="80" height="60" fill="#87CEEB" rx="2"/>
    <rect x="270" y="130" width="80" height="60" fill="#87CEEB" rx="2"/>

    <!-- Window Panes -->
    <line x1="90" y1="130" x2="90" y2="190" stroke="#654321" stroke-width="2"/>
    <line x1="50" y1="160" x2="130" y2="160" stroke="#654321" stroke-width="2"/>
    <line x1="310" y1="130" x2="310" y2="190" stroke="#654321" stroke-width="2"/>
    <line x1="270" y1="160" x2="350" y2="160" stroke="#654321" stroke-width="2"/>

    <!-- Second Floor Windows -->
    <rect x="80" y="60" width="60" height="30" fill="#87CEEB" rx="1"/>
    <rect x="360" y="60" width="60" height="30" fill="#87CEEB" rx="1"/>

    <!-- Porch -->
    <rect x="-20" y="350" width="200" height="50" fill="#D2B48C"/>

    <!-- Porch Columns -->
    <rect x="-10" y="300" width="15" height="50" fill="#8B7355"/>
    <rect x="60" y="300" width="15" height="50" fill="#8B7355"/>
    <rect x="130" y="300" width="15" height="50" fill="#8B7355"/>
    <rect x="200" y="300" width="15" height="50" fill="#8B7355"/>

    <!-- Porch Railing -->
    <rect x="-20" y="290" width="200" height="10" fill="#8B7355"/>

    <!-- Chimney -->
    <rect x="400" y="40" width="40" height="80" fill="#8B4513"/>

    <!-- Landscaping -->
    <ellipse cx="600" cy="380" rx="80" ry="40" fill="#228B22" opacity="0.8"/>
    <ellipse cx="50" cy="400" rx="60" ry="30" fill="#228B22" opacity="0.8"/>

    <!-- Driveway -->
    <path d="M500 600 Q550 500 500 350" fill="none" stroke="#696969" stroke-width="40"/>
  </g>

  <!-- Luxury Car -->
  <g transform="translate(480, 380)">
    <rect x="0" y="0" width="80" height="30" fill="#DC143C" rx="5"/>
    <rect x="10" y="-10" width="60" height="15" fill="#87CEEB" rx="3"/>
    <circle cx="20" cy="30" r="8" fill="#2F4F4F"/>
    <circle cx="60" cy="30" r="8" fill="#2F4F4F"/>
  </g>

  <!-- Ground -->
  <rect x="0" y="580" width="800" height="20" fill="#228B22"/>

  <!-- Trees -->
  <g id="luxuryTree">
    <rect x="48" y="280" width="6" height="80" fill="#8B4513"/>
    <polygon points="20,280 50,220 80,280" fill="#228B22"/>
    <polygon points="25,260 50,200 75,260" fill="#32CD32"/>
  </g>

  <use href="#luxuryTree" transform="translate(50, 150)"/>
  <use href="#luxuryTree" transform="translate(650, 180)"/>
</svg>