<svg xmlns="http://www.w3.org/2000/svg" viewBox="0 0 100 100" width="100" height="100">
  <defs>
    <linearGradient id="aiGradient" x1="0%" y1="0%" x2="100%" y2="100%">
      <stop offset="0%" style="stop-color:#4682B4;stop-opacity:1" />
      <stop offset="50%" style="stop-color:#87CEEB;stop-opacity:1" />
      <stop offset="100%" style="stop-color:#4682B4;stop-opacity:1" />
    </linearGradient>
  </defs>

  <!-- AI Brain Outline -->
  <path d="M30 40 Q20 30 25 20 Q30 10 40 15 Q50 10 60 15 Q70 10 75 20 Q80 30 70 40 Q75 50 70 60 Q65 70 55 65 Q50 70 45 65 Q35 70 30 60 Q25 50 30 40"
        fill="url(#aiGradient)" stroke="#191970" stroke-width="2"/>

  <!-- Brain Divisions -->
  <path d="M40 25 Q50 20 60 25 Q60 35 50 40 Q40 35 40 25"
        fill="none" stroke="#191970" stroke-width="1" opacity="0.7"/>
  <path d="M25 45 Q35 40 45 45 Q45 55 35 60 Q25 55 25 45"
        fill="none" stroke="#191970" stroke-width="1" opacity="0.7"/>
  <path d="M55 45 Q65 40 75 45 Q75 55 65 60 Q55 55 55 45"
        fill="none" stroke="#191970" stroke-width="1" opacity="0.7"/>

  <!-- Circuit Lines -->
  <path d="M50 40 L55 45 L60 40" stroke="#87CEEB" stroke-width="2" fill="none"/>
  <path d="M45 50 L50 55 L55 50" stroke="#87CEEB" stroke-width="2" fill="none"/>

  <!-- Connection Points -->
  <circle cx="50" cy="40" r="2" fill="#87CEEB"/>
  <circle cx="50" cy="50" r="2" fill="#87CEEB"/>
  <circle cx="50" cy="60" r="2" fill="#87CEEB"/>

  <!-- Digital Elements -->
  <text x="20" y="85" font-family="monospace" font-size="8" fill="#4682B4">0110</text>
  <text x="40" y="90" font-family="monospace" font-size="8" fill="#4682B4">1001</text>
  <text x="60" y="85" font-family="monospace" font-size="8" fill="#4682B4">1101</text>

  <!-- AI Glow Effect -->
  <circle cx="50" cy="50" r="25" fill="none" stroke="#87CEEB" stroke-width="1" opacity="0.3"/>
</svg>