<svg xmlns="http://www.w3.org/2000/svg" viewBox="0 0 100 100" width="100" height="100">
  <defs>
    <linearGradient id="woodGradient" x1="0%" y1="0%" x2="100%" y2="100%">
      <stop offset="0%" style="stop-color:#C19A6B;stop-opacity:1" />
      <stop offset="50%" style="stop-color:#D4A574;stop-opacity:1" />
      <stop offset="100%" style="stop-color:#B8956A;stop-opacity:1" />
    </linearGradient>
    <linearGradient id="roofGradient" x1="0%" y1="0%" x2="100%" y2="100%">
      <stop offset="0%" style="stop-color:#2E5A3E;stop-opacity:1" />
      <stop offset="100%" style="stop-color:#1A3A24;stop-opacity:1" />
    </linearGradient>
  </defs>

  <!-- Cabin Base -->
  <rect x="15" y="40" width="70" height="50" fill="url(#woodGradient)" rx="2"/>

  <!-- Cabin Roof -->
  <polygon points="10,40 50,10 90,40" fill="url(#roofGradient)"/>

  <!-- Door -->
  <rect x="40" y="60" width="20" height="30" fill="#8B6F47" rx="1"/>
  <circle cx="55" cy="75" r="1.5" fill="#D4A574"/>

  <!-- Windows -->
  <rect x="22" y="50" width="12" height="12" fill="#87CEEB" rx="1"/>
  <rect x="66" y="50" width="12" height="12" fill="#87CEEB" rx="1"/>

  <!-- Window Crosses -->
  <line x1="28" y1="50" x2="28" y2="62" stroke="#8B6F47" stroke-width="1"/>
  <line x1="22" y1="56" x2="34" y2="56" stroke="#8B6F47" stroke-width="1"/>
  <line x1="72" y1="50" x2="72" y2="62" stroke="#8B6F47" stroke-width="1"/>
  <line x1="66" y1="56" x2="78" y2="56" stroke="#8B6F47" stroke-width="1"/>

  <!-- Chimney -->
  <rect x="70" y="20" width="8" height="20" fill="#8B6F47" rx="1"/>

  <!-- Ground -->
  <rect x="0" y="90" width="100" height="10" fill="#4A7C59"/>

  <!-- Smoke -->
  <circle cx="74" cy="15" r="2" fill="#E0E0E0" opacity="0.7"/>
  <circle cx="76" cy="10" r="2.5" fill="#E0E0E0" opacity="0.5"/>
  <circle cx="78" cy="5" r="3" fill="#E0E0E0" opacity="0.3"/>
</svg>