<svg xmlns="http://www.w3.org/2000/svg" viewBox="0 0 100 100" width="100" height="100">
  <defs>
    <linearGradient id="leafGradient" x1="0%" y1="0%" x2="100%" y2="100%">
      <stop offset="0%" style="stop-color:#4A7C59;stop-opacity:1" />
      <stop offset="50%" style="stop-color:#2E5A3E;stop-opacity:1" />
      <stop offset="100%" style="stop-color:#1A3A24;stop-opacity:1" />
    </linearGradient>
  </defs>

  <!-- Main Leaf -->
  <path d="M50 20 Q30 30 25 50 Q25 70 40 80 Q50 85 60 80 Q75 70 75 50 Q70 30 50 20"
        fill="url(#leafGradient)" stroke="#1A3A24" stroke-width="1"/>

  <!-- Leaf Vein -->
  <path d="M50 25 Q50 40 50 55 Q50 70 50 75"
        stroke="#1A3A24" stroke-width="1" fill="none" opacity="0.5"/>

  <!-- Side Veins -->
  <path d="M50 35 Q40 40 35 45" stroke="#1A3A24" stroke-width="0.5" fill="none" opacity="0.3"/>
  <path d="M50 35 Q60 40 65 45" stroke="#1A3A24" stroke-width="0.5" fill="none" opacity="0.3"/>
  <path d="M50 45 Q40 50 35 55" stroke="#1A3A24" stroke-width="0.5" fill="none" opacity="0.3"/>
  <path d="M50 45 Q60 50 65 55" stroke="#1A3A24" stroke-width="0.5" fill="none" opacity="0.3"/>
  <path d="M50 55 Q40 60 35 65" stroke="#1A3A24" stroke-width="0.5" fill="none" opacity="0.3"/>
  <path d="M50 55 Q60 60 65 65" stroke="#1A3A24" stroke-width="0.5" fill="none" opacity="0.3"/>

  <!-- Eco Circle -->
  <circle cx="50" cy="50" r="35" fill="none" stroke="#2E5A3E" stroke-width="2" opacity="0.3"/>

  <!-- Small Leaves -->
  <circle cx="35" cy="35" r="3" fill="#4A7C59" opacity="0.7"/>
  <circle cx="65" cy="35" r="3" fill="#4A7C59" opacity="0.7"/>
  <circle cx="35" cy="65" r="3" fill="#4A7C59" opacity="0.7"/>
  <circle cx="65" cy="65" r="3" fill="#4A7C59" opacity="0.7"/>
</svg>