<svg xmlns="http://www.w3.org/2000/svg" viewBox="0 0 100 100" width="100" height="100">
  <defs>
    <linearGradient id="earthGradient" x1="0%" y1="0%" x2="100%" y2="100%">
      <stop offset="0%" style="stop-color:#4682B4;stop-opacity:1" />
      <stop offset="50%" style="stop-color:#87CEEB;stop-opacity:1" />
      <stop offset="100%" style="stop-color:#2E5A3E;stop-opacity:1" />
    </linearGradient>
  </defs>

  <!-- Globe -->
  <circle cx="50" cy="50" r="35" fill="url(#earthGradient)" stroke="#1A3A24" stroke-width="2"/>

  <!-- Latitude Lines -->
  <ellipse cx="50" cy="50" rx="35" ry="10" fill="none" stroke="#FFFFFF" stroke-width="1" opacity="0.5"/>
  <ellipse cx="50" cy="50" rx="35" ry="20" fill="none" stroke="#FFFFFF" stroke-width="1" opacity="0.5"/>
  <ellipse cx="50" cy="50" rx="35" ry="30" fill="none" stroke="#FFFFFF" stroke-width="1" opacity="0.5"/>

  <!-- Longitude Lines -->
  <path d="M15 50 Q50 20 85 50 Q50 80 15 50" fill="none" stroke="#FFFFFF" stroke-width="1" opacity="0.5"/>
  <path d="M25 25 Q50 40 75 25" fill="none" stroke="#FFFFFF" stroke-width="1" opacity="0.5"/>
  <path d="M25 75 Q50 60 75 75" fill="none" stroke="#FFFFFF" stroke-width="1" opacity="0.5"/>

  <!-- Continents -->
  <path d="M30 35 Q40 30 45 40 Q40 50 35 45 Q30 40 30 35" fill="#2E5A3E" opacity="0.7"/>
  <path d="M55 40 Q65 35 70 45 Q65 55 60 50 Q55 45 55 40" fill="#2E5A3E" opacity="0.7"/>
  <path d="M40 60 Q50 55 55 65 Q50 75 45 70 Q40 65 40 60" fill="#2E5A3E" opacity="0.7"/>

  <!-- Connection Points -->
  <circle cx="30" cy="35" r="2" fill="#FFD700"/>
  <circle cx="70" cy="45" r="2" fill="#FFD700"/>
  <circle cx="50" cy="65" r="2" fill="#FFD700"/>
  <circle cx="20" cy="50" r="2" fill="#FFD700"/>
  <circle cx="80" cy="50" r="2" fill="#FFD700"/>

  <!-- Connection Lines -->
  <line x1="30" y1="35" x2="70" y2="45" stroke="#FFD700" stroke-width="1" opacity="0.5"/>
  <line x1="70" y1="45" x2="50" y2="65" stroke="#FFD700" stroke-width="1" opacity="0.5"/>
  <line x1="50" y1="65" x2="30" y2="35" stroke="#FFD700" stroke-width="1" opacity="0.5"/>
</svg>