<svg xmlns="http://www.w3.org/2000/svg" viewBox="0 0 100 100" width="100" height="100">
  <defs>
    <linearGradient id="goldGradient" x1="0%" y1="0%" x2="100%" y2="100%">
      <stop offset="0%" style="stop-color:#FFD700;stop-opacity:1" />
      <stop offset="50%" style="stop-color:#FFA500;stop-opacity:1" />
      <stop offset="100%" style="stop-color:#FFD700;stop-opacity:1" />
    </linearGradient>
  </defs>

  <!-- Star Background -->
  <polygon points="50,5 61,35 91,35 68,57 79,87 50,70 21,87 32,57 9,35 39,35"
           fill="url(#goldGradient)" stroke="#B8860B" stroke-width="2"/>

  <!-- Quality Circle -->
  <circle cx="50" cy="50" r="30" fill="none" stroke="#FFD700" stroke-width="3" opacity="0.7"/>

  <!-- Checkmark -->
  <path d="M35 50 L45 60 L65 40"
        stroke="#FFFFFF" stroke-width="4" fill="none" stroke-linecap="round"/>

  <!-- Small Stars -->
  <polygon points="15,15 18,22 25,22 19,27 22,34 15,29 8,34 11,27 5,22 12,22"
           fill="#FFD700" opacity="0.6"/>
  <polygon points="85,15 88,22 95,22 89,27 92,34 85,29 78,34 81,27 75,22 82,22"
           fill="#FFD700" opacity="0.6"/>
  <polygon points="50,85 53,92 60,92 54,97 57,104 50,99 43,104 46,97 40,92 47,92"
           fill="#FFD700" opacity="0.6"/>
</svg>