<svg width="200" height="200" viewBox="0 0 200 200" xmlns="http://www.w3.org/2000/svg">
  <!-- House Base -->
  <rect x="40" y="120" width="120" height="60" fill="#8B4513" stroke="#654321" stroke-width="2"/>

  <!-- Roof -->
  <polygon points="30,120 100,60 170,120" fill="#A0522D" stroke="#654321" stroke-width="2"/>

  <!-- Door -->
  <rect x="85" y="140" width="30" height="40" fill="#654321" stroke="#4A3018" stroke-width="1"/>
  <circle cx="108" cy="160" r="2" fill="#FFD700"/>

  <!-- Windows -->
  <rect x="55" y="135" width="20" height="20" fill="#87CEEB" stroke="#654321" stroke-width="1"/>
  <line x1="65" y1="135" x2="65" y2="155" stroke="#654321" stroke-width="1"/>
  <line x1="55" y1="145" x2="75" y2="145" stroke="#654321" stroke-width="1"/>

  <rect x="125" y="135" width="20" height="20" fill="#87CEEB" stroke="#654321" stroke-width="1"/>
  <line x1="135" y1="135" x2="135" y2="155" stroke="#654321" stroke-width="1"/>
  <line x1="125" y1="145" x2="145" y2="145" stroke="#654321" stroke-width="1"/>

  <!-- Chimney -->
  <rect x="135" y="80" width="15" height="30" fill="#8B4513" stroke="#654321" stroke-width="1"/>

  <!-- Smoke -->
  <circle cx="142" cy="70" r="4" fill="#D3D3D3" opacity="0.7"/>
  <circle cx="145" cy="60" r="5" fill="#D3D3D3" opacity="0.6"/>
  <circle cx="140" cy="50" r="6" fill="#D3D3D3" opacity="0.5"/>

  <!-- Ground -->
  <line x1="20" y1="180" x2="180" y2="180" stroke="#228B22" stroke-width="3"/>

  <!-- Trees -->
  <polygon points="25,170 20,150 30,150" fill="#228B22"/>
  <rect x="23" y="170" width="4" height="10" fill="#8B4513"/>

  <polygon points="175,170 170,150 180,150" fill="#228B22"/>
  <rect x="173" y="170" width="4" height="10" fill="#8B4513"/>
</svg>